<svg width="14943" height="16598" viewBox="0 0 14943 16598" fill="none" xmlns="http://www.w3.org/2000/svg">
<path d="M4409.75 3150.67H1348L7471.5 0L13595 3150.67H10630.8L8261.31 1575.33V4926.67L10630.8 3351.33H13595L7471.5 6502L4409.75 4926.67L1348 3351.33H4409.75L6706.06 4926.67V1575.33L4409.75 3150.67Z" fill="#4242BD"/>
<path d="M9973.62 11952L10763.5 11545.7L11553.4 11139.3V7888.67V6263.33L13923 6669.67V3419L7604 6669.67V8295V9107.67V9920.33L9973.62 7076V8701.33V11952Z" fill="#1B0F6F"/>
<path d="M2397.6 4126.67L1022 3419V4158.86V4898.72V6378.44V9337.89L1709.8 10274.4L2397.6 10628.2L4079.43 11493.4L5761.25 12358.7L6551.13 12765L7341 12358.7V9514.22V8092V7380.89V6669.78L5761.25 5857.09V9107.87V10733.3L4093.12 10628.2L2397.6 9002.85V7377.46V4126.67Z" fill="#5E76FF"/>
<path d="M1498.63 15997C1347.16 15997 1206.36 15981 1076.23 15949C948.225 15917 830.892 15869 724.225 15805C617.558 15741 520.492 15659.9 433.025 15561.8L657.025 15277C787.158 15422.1 919.425 15526.6 1053.83 15590.6C1188.23 15654.6 1339.69 15686.6 1508.23 15686.6C1612.76 15686.6 1713.03 15673.8 1809.03 15648.2C1905.03 15620.5 1982.89 15581 2042.63 15529.8C2102.36 15476.5 2132.23 15410.3 2132.23 15331.4C2132.23 15282.3 2116.23 15240.7 2084.23 15206.6C2054.36 15172.5 2012.76 15144.7 1959.43 15123.4C1908.23 15099.9 1850.63 15080.7 1786.63 15065.8C1724.76 15050.9 1662.89 15039.1 1601.03 15030.6C1539.16 15019.9 1483.69 15012.5 1434.63 15008.2C1298.09 14986.9 1174.36 14959.1 1063.43 14925C954.625 14890.9 860.758 14848.2 781.825 14797C705.025 14743.7 646.358 14679.7 605.825 14605C565.292 14530.3 545.025 14445 545.025 14349C545.025 14246.6 568.492 14154.9 615.425 14073.8C664.492 13992.7 731.692 13924.5 817.025 13869C904.492 13811.4 1005.83 13767.7 1121.03 13737.8C1236.23 13707.9 1361.03 13693 1495.43 13693C1638.36 13693 1768.49 13707.9 1885.83 13737.8C2005.29 13767.7 2110.89 13812.5 2202.63 13872.2C2296.49 13929.8 2373.29 14001.3 2433.03 14086.6L2202.63 14336.2C2145.03 14263.7 2078.89 14202.9 2004.23 14153.8C1931.69 14104.7 1851.69 14067.4 1764.22 14041.8C1676.76 14016.2 1583.96 14003.4 1485.83 14003.4C1377.03 14003.4 1279.96 14016.2 1194.63 14041.8C1109.29 14067.4 1041.03 14103.7 989.825 14150.6C940.758 14195.4 916.225 14250.9 916.225 14317C916.225 14370.3 931.158 14417.3 961.025 14457.8C990.892 14498.3 1033.56 14532.5 1089.03 14560.2C1144.49 14585.8 1211.69 14608.2 1290.63 14627.4C1369.56 14644.5 1458.09 14660.5 1556.23 14675.4C1682.09 14692.5 1801.56 14714.9 1914.63 14742.6C2029.83 14768.2 2131.16 14803.4 2218.63 14848.2C2308.23 14890.9 2377.56 14947.4 2426.63 15017.8C2477.83 15086.1 2503.43 15173.5 2503.43 15280.2C2503.43 15423.1 2461.83 15549 2378.63 15657.8C2295.43 15766.6 2179.16 15850.9 2029.83 15910.6C1880.49 15968.2 1703.43 15997 1498.63 15997ZM5217.18 15965V13725H5562.78V15965H5217.18ZM3396.38 15965V13725H3741.98V15965H3396.38ZM3546.78 15024.2L3549.98 14691.4H5370.78V15024.2H3546.78ZM6343.05 15965L7389.45 13725H7783.05L8826.25 15965H8448.65L7744.65 14461C7727.58 14424.7 7709.45 14386.3 7690.25 14345.8C7671.05 14303.1 7651.85 14259.4 7632.65 14214.6C7613.45 14169.8 7595.32 14125 7578.25 14080.2C7561.18 14033.3 7545.18 13987.4 7530.25 13942.6L7626.25 13939.4C7609.18 13988.5 7591.05 14036.5 7571.85 14083.4C7554.78 14130.3 7535.58 14176.2 7514.25 14221C7495.05 14265.8 7475.85 14309.5 7456.65 14352.2C7437.45 14392.7 7419.32 14433.3 7402.25 14473.8L6704.65 15965H6343.05ZM6800.65 15433.8L6935.05 15101H8202.25L8275.85 15433.8H6800.65ZM9605.75 15965V13725H10844.2C10976.4 13725 11097 13755.9 11205.8 13817.8C11314.6 13877.5 11402 13960.7 11468.2 14067.4C11534.3 14171.9 11567.4 14289.3 11567.4 14419.4C11567.4 14549.5 11531.1 14669 11458.6 14777.8C11388.2 14886.6 11294.3 14974.1 11177 15040.2C11061.8 15104.2 10933.8 15136.2 10793 15136.2H9951.35V15965H9605.75ZM11260.2 15965L10537 14953.8L10901.8 14873.8L11689 15968.2L11260.2 15965ZM9951.35 14803.4H10773.8C10850.6 14803.4 10921 14786.3 10985 14752.2C11051.1 14715.9 11103.4 14669 11141.8 14611.4C11182.3 14551.7 11202.6 14486.6 11202.6 14416.2C11202.6 14350.1 11182.3 14290.3 11141.8 14237C11101.2 14181.5 11046.8 14137.8 10978.6 14105.8C10910.3 14073.8 10835.6 14057.8 10754.6 14057.8H9951.35V14803.4ZM12640.1 15965V13725H14409.7V14057.8H12985.7V15632.2H14409.7V15965H12640.1ZM12822.5 14982.6V14649.8H14233.7V14982.6H12822.5Z" fill="white"/>
</svg>
